<?xml version="1.0" encoding="UTF-8" standalone="no"?>
<svg xmlns="http://www.w3.org/2000/svg" width="32" height="32" viewBox="0 0 32 32" fill="none">
  <!-- Definitions for gradients -->
  <defs>
    <linearGradient id="bgGradient" x1="0%" y1="0%" x2="100%" y2="100%">
      <stop offset="0%" stop-color="#6366F1" />
      <stop offset="100%" stop-color="#8B5CF6" />
    </linearGradient>
    <linearGradient id="lightningGradient" x1="0%" y1="0%" x2="100%" y2="100%">
      <stop offset="0%" stop-color="#FBBF24" />
      <stop offset="100%" stop-color="#F59E0B" />
    </linearGradient>
  </defs>

  <!-- Rounded square background -->
  <rect x="2" y="2" width="28" height="28" rx="6" fill="url(#bgGradient)" />
  
  <!-- Neural network pattern (simplified for small size) -->
  <g fill="#FFFFFF" opacity="0.9">
    <circle cx="16" cy="16" r="1.5" />
    <circle cx="12" cy="12" r="1" />
    <circle cx="20" cy="12" r="1" />
    <circle cx="12" cy="20" r="1" />
    <circle cx="20" cy="20" r="1" />
  </g>
  
  <!-- Connection lines (simplified) -->
  <g stroke="#FFFFFF" stroke-width="0.5" opacity="0.7">
    <line x1="12" y1="12" x2="16" y2="16" />
    <line x1="20" y1="12" x2="16" y2="16" />
    <line x1="12" y1="20" x2="16" y2="16" />
    <line x1="20" y1="20" x2="16" y2="16" />
  </g>
  
  <!-- Lightning bolt (Sprint) - simplified -->
  <path d="M19 10 L16 15 L19 15 L13 22 L15 17 L12 17 L16 10 Z" fill="url(#lightningGradient)" />
</svg> 