<?xml version="1.0" encoding="UTF-8" standalone="no"?>
<svg width="32" height="32" viewBox="0 0 32 32" fill="none" xmlns="http://www.w3.org/2000/svg">
  <!-- Gradient background -->
  <defs>
    <linearGradient id="backgroundGradient" x1="0" y1="0" x2="32" y2="32" gradientUnits="userSpaceOnUse">
      <stop offset="0%" stop-color="#4338CA"/>
      <stop offset="100%" stop-color="#0F766E"/>
    </linearGradient>
    <linearGradient id="glowGradient" x1="16" y1="4" x2="16" y2="28" gradientUnits="userSpaceOnUse">
      <stop offset="0%" stop-color="#A5B4FC"/>
      <stop offset="100%" stop-color="#5EEAD4"/>
    </linearGradient>
    <filter id="glow" x="-20%" y="-20%" width="140%" height="140%">
      <feGaussianBlur stdDeviation="1" result="blur"/>
      <feComposite in="SourceGraphic" in2="blur" operator="over"/>
    </filter>
  </defs>
  
  <!-- Rounded square background -->
  <rect width="32" height="32" rx="8" fill="url(#backgroundGradient)"/>
  
  <!-- Stylized brain shape -->
  <g filter="url(#glow)">
    <path d="M17 7C21.4183 7 25 10.5817 25 15C25 16.2523 24.6683 17.4318 24.0933 18.4582C23.8933 18.8282 23.8 19.2324 23.8 19.6324C23.8 21.1106 24.7183 22.4 26.0683 23.09C26.2683 23.19 26.4 23.4001 26.4 23.6344V24C26.4 24.5523 25.9523 25 25.4 25H6.6C6.0477 25 5.6 24.5523 5.6 24V23.6344C5.6 23.4001 5.7317 23.19 5.9317 23.09C7.2817 22.4 8.2 21.1106 8.2 19.6324C8.2 19.2324 8.1067 18.8282 7.9067 18.4582C7.3317 17.4318 7 16.2523 7 15C7 10.5817 10.5817 7 15 7" stroke="white" stroke-width="2" stroke-linecap="round"/>
  </g>
  
  <!-- Synapse network -->
  <g filter="url(#glow)">
    <!-- Central synapse node -->
    <circle cx="16" cy="16" r="2.5" fill="#A5B4FC" opacity="0.8"/>
    
    <!-- Connection lines -->
    <path d="M16 13.5V10" stroke="white" stroke-width="1" stroke-linecap="round"/>
    <path d="M16 18.5V22" stroke="white" stroke-width="1" stroke-linecap="round"/>
    <path d="M13.5 16H10" stroke="white" stroke-width="1" stroke-linecap="round"/>
    <path d="M18.5 16H22" stroke="white" stroke-width="1" stroke-linecap="round"/>
    
    <!-- Diagonal connections -->
    <path d="M14.1 14.1L12 12" stroke="white" stroke-width="1" stroke-linecap="round"/>
    <path d="M17.9 14.1L20 12" stroke="white" stroke-width="1" stroke-linecap="round"/>
    <path d="M14.1 17.9L12 20" stroke="white" stroke-width="1" stroke-linecap="round"/>
    <path d="M17.9 17.9L20 20" stroke="white" stroke-width="1" stroke-linecap="round"/>
    
    <!-- Smaller synapse nodes -->
    <circle cx="10" cy="16" r="1.2" fill="#A5B4FC" opacity="0.7"/>
    <circle cx="22" cy="16" r="1.2" fill="#A5B4FC" opacity="0.7"/>
    <circle cx="16" cy="10" r="1.2" fill="#A5B4FC" opacity="0.7"/>
    <circle cx="16" cy="22" r="1.2" fill="#A5B4FC" opacity="0.7"/>
    <circle cx="12" cy="12" r="1.2" fill="#A5B4FC" opacity="0.7"/>
    <circle cx="20" cy="12" r="1.2" fill="#A5B4FC" opacity="0.7"/>
    <circle cx="12" cy="20" r="1.2" fill="#A5B4FC" opacity="0.7"/>
    <circle cx="20" cy="20" r="1.2" fill="#A5B4FC" opacity="0.7"/>
  </g>
  
  <!-- Pulse effect circle -->
  <circle cx="16" cy="16" r="6" stroke="#5EEAD4" stroke-width="0.5" stroke-dasharray="1 1" opacity="0.7"/>
  
  <!-- Pulse lightning/flash for "Sprint" concept -->
  <path d="M17 10L14 16H18L15 22" stroke="#A5B4FC" stroke-width="1.5" stroke-linecap="round" stroke-linejoin="round"/>
</svg> 