<svg xmlns="http://www.w3.org/2000/svg" width="512" height="512" viewBox="0 0 512 512" fill="none">
  <!-- Definitions for gradients -->
  <defs>
    <linearGradient id="bgGradient" x1="0%" y1="0%" x2="100%" y2="100%">
      <stop offset="0%" stop-color="#6366F1" />
      <stop offset="100%" stop-color="#8B5CF6" />
    </linearGradient>
    <radialGradient id="glowGradient" cx="50%" cy="50%" r="50%" fx="50%" fy="50%">
      <stop offset="0%" stop-color="#C4B5FD" stop-opacity="0.8" />
      <stop offset="100%" stop-color="#6366F1" stop-opacity="0" />
    </radialGradient>
    <linearGradient id="lightningGradient" x1="0%" y1="0%" x2="100%" y2="100%">
      <stop offset="0%" stop-color="#FBBF24" />
      <stop offset="100%" stop-color="#F59E0B" />
    </linearGradient>
  </defs>

  <!-- Rounded square background -->
  <rect x="24" y="24" width="464" height="464" rx="80" fill="url(#bgGradient)" />
  
  <!-- Glow effect -->
  <circle cx="256" cy="256" r="180" fill="url(#glowGradient)" />
  
  <!-- Neural network pattern (main brain shape) -->
  <g fill="#F8FAFC" opacity="0.9">
    <!-- Left hemisphere -->
    <circle cx="180" cy="160" r="14" />
    <circle cx="140" cy="220" r="14" />
    <circle cx="200" cy="250" r="14" />
    <circle cx="150" cy="310" r="14" />
    <circle cx="220" cy="330" r="14" />
    
    <!-- Right hemisphere -->
    <circle cx="332" cy="160" r="14" />
    <circle cx="372" cy="220" r="14" />
    <circle cx="312" cy="250" r="14" />
    <circle cx="362" cy="310" r="14" />
    <circle cx="292" cy="330" r="14" />
    
    <!-- Connection hub -->
    <circle cx="256" cy="240" r="20" />
  </g>
  
  <!-- Connection lines -->
  <g stroke="#F8FAFC" stroke-width="4" opacity="0.7">
    <!-- Left connections -->
    <line x1="180" y1="160" x2="256" y2="240" />
    <line x1="140" y1="220" x2="256" y2="240" />
    <line x1="200" y1="250" x2="256" y2="240" />
    <line x1="150" y1="310" x2="256" y2="240" />
    <line x1="220" y1="330" x2="256" y2="240" />
    
    <!-- Right connections -->
    <line x1="332" y1="160" x2="256" y2="240" />
    <line x1="372" y1="220" x2="256" y2="240" />
    <line x1="312" y1="250" x2="256" y2="240" />
    <line x1="362" y1="310" x2="256" y2="240" />
    <line x1="292" y1="330" x2="256" y2="240" />
    
    <!-- Cross-hemisphere connections -->
    <line x1="180" y1="160" x2="332" y2="160" stroke-dasharray="8,8" />
    <line x1="150" y1="310" x2="362" y2="310" stroke-dasharray="8,8" />
  </g>
  
  <!-- Pulse rings -->
  <circle cx="256" cy="240" r="50" stroke="#F8FAFC" stroke-width="2" fill="none" opacity="0.4" />
  <circle cx="256" cy="240" r="80" stroke="#F8FAFC" stroke-width="2" fill="none" opacity="0.3" />
  <circle cx="256" cy="240" r="110" stroke="#F8FAFC" stroke-width="2" fill="none" opacity="0.2" />
  
  <!-- Lightning bolt (Sprint) -->
  <path d="M310 150 L270 230 L320 230 L220 370 L250 270 L200 270 L260 150 Z" fill="url(#lightningGradient)" />
</svg> 