<?xml version="1.0" encoding="UTF-8" standalone="no"?>
<svg width="192" height="192" viewBox="0 0 192 192" fill="none" xmlns="http://www.w3.org/2000/svg">
  <!-- Definitions for gradients -->
  <defs>
    <linearGradient id="bgGradient" x1="0%" y1="0%" x2="100%" y2="100%">
      <stop offset="0%" stop-color="#6366F1" />
      <stop offset="100%" stop-color="#8B5CF6" />
    </linearGradient>
    <radialGradient id="glowGradient" cx="50%" cy="50%" r="50%" fx="50%" fy="50%">
      <stop offset="0%" stop-color="#C4B5FD" stop-opacity="0.8" />
      <stop offset="100%" stop-color="#6366F1" stop-opacity="0" />
    </radialGradient>
    <linearGradient id="lightningGradient" x1="0%" y1="0%" x2="100%" y2="100%">
      <stop offset="0%" stop-color="#FBBF24" />
      <stop offset="100%" stop-color="#F59E0B" />
    </linearGradient>
  </defs>
  
  <!-- Rounded square background -->
  <rect x="9" y="9" width="174" height="174" rx="30" fill="url(#bgGradient)" />
  
  <!-- Glow effect -->
  <circle cx="96" cy="96" r="65" fill="url(#glowGradient)" />
  
  <!-- Neural network pattern (main brain shape) -->
  <g fill="#F8FAFC" opacity="0.9">
    <!-- Left hemisphere -->
    <circle cx="68" cy="60" r="5" />
    <circle cx="52" cy="82" r="5" />
    <circle cx="75" cy="94" r="5" />
    <circle cx="56" cy="116" r="5" />
    <circle cx="82" cy="124" r="5" />
    
    <!-- Right hemisphere -->
    <circle cx="124" cy="60" r="5" />
    <circle cx="140" cy="82" r="5" />
    <circle cx="117" cy="94" r="5" />
    <circle cx="136" cy="116" r="5" />
    <circle cx="110" cy="124" r="5" />
    
    <!-- Connection hub -->
    <circle cx="96" cy="90" r="8" />
  </g>
  
  <!-- Connection lines -->
  <g stroke="#F8FAFC" stroke-width="1.5" opacity="0.7">
    <!-- Left connections -->
    <line x1="68" y1="60" x2="96" y2="90" />
    <line x1="52" y1="82" x2="96" y2="90" />
    <line x1="75" y1="94" x2="96" y2="90" />
    <line x1="56" y1="116" x2="96" y2="90" />
    <line x1="82" y1="124" x2="96" y2="90" />
    
    <!-- Right connections -->
    <line x1="124" y1="60" x2="96" y2="90" />
    <line x1="140" y1="82" x2="96" y2="90" />
    <line x1="117" y1="94" x2="96" y2="90" />
    <line x1="136" y1="116" x2="96" y2="90" />
    <line x1="110" y1="124" x2="96" y2="90" />
    
    <!-- Cross-hemisphere connections -->
    <line x1="68" y1="60" x2="124" y2="60" stroke-dasharray="3,3" />
    <line x1="56" y1="116" x2="136" y2="116" stroke-dasharray="3,3" />
  </g>
  
  <!-- Pulse rings -->
  <circle cx="96" cy="90" r="20" stroke="#F8FAFC" stroke-width="1" fill="none" opacity="0.4" />
  <circle cx="96" cy="90" r="32" stroke="#F8FAFC" stroke-width="1" fill="none" opacity="0.3" />
  <circle cx="96" cy="90" r="44" stroke="#F8FAFC" stroke-width="1" fill="none" opacity="0.2" />
  
  <!-- Lightning bolt (Sprint) -->
  <path d="M116 56 L101 86 L119 86 L82 139 L94 101 L75 101 L97 56 Z" fill="url(#lightningGradient)" />
</svg> 